<mxfile host="app.diagrams.net" agent="Mozilla/5.0 (Windows NT 10.0; Win64; x64) AppleWebKit/537.36 (KHTML, like Gecko) Chrome/122.0.0.0 Safari/537.36" version="24.8.3">
  <diagram name="Page-1" id="YpNJI4el16W24UQOGwkx">
    <mxGraphModel dx="2434" dy="2008" grid="1" gridSize="1" guides="1" tooltips="1" connect="1" arrows="1" fold="1" page="1" pageScale="1" pageWidth="850" pageHeight="1100" math="0" shadow="0">
      <root>
        <mxCell id="0" />
        <mxCell id="1" parent="0" />
        <mxCell id="Oa1IUwboigsTqwIdssuT-1" value="users" style="rounded=0;whiteSpace=wrap;html=1;fillColor=#ffe6cc;strokeColor=#d79b00;" vertex="1" parent="1">
          <mxGeometry x="-270" y="205" width="120" height="60" as="geometry" />
        </mxCell>
        <mxCell id="Oa1IUwboigsTqwIdssuT-2" value="user_id" style="ellipse;whiteSpace=wrap;html=1;fillColor=#dae8fc;strokeColor=#6c8ebf;" vertex="1" parent="1">
          <mxGeometry x="-265" y="-60" width="110" height="70" as="geometry" />
        </mxCell>
        <mxCell id="Oa1IUwboigsTqwIdssuT-3" value="first_name" style="ellipse;whiteSpace=wrap;html=1;fillColor=#dae8fc;strokeColor=#6c8ebf;" vertex="1" parent="1">
          <mxGeometry x="-350" y="-15" width="110" height="70" as="geometry" />
        </mxCell>
        <mxCell id="Oa1IUwboigsTqwIdssuT-4" value="last_name" style="ellipse;whiteSpace=wrap;html=1;fillColor=#dae8fc;strokeColor=#6c8ebf;" vertex="1" parent="1">
          <mxGeometry x="-420" y="50" width="110" height="70" as="geometry" />
        </mxCell>
        <mxCell id="Oa1IUwboigsTqwIdssuT-5" value="email" style="ellipse;whiteSpace=wrap;html=1;fillColor=#dae8fc;strokeColor=#6c8ebf;" vertex="1" parent="1">
          <mxGeometry x="-460" y="265" width="110" height="70" as="geometry" />
        </mxCell>
        <mxCell id="Oa1IUwboigsTqwIdssuT-8" value="digital_product_info" style="ellipse;whiteSpace=wrap;html=1;fillColor=#dae8fc;strokeColor=#6c8ebf;" vertex="1" parent="1">
          <mxGeometry x="600" y="152.5" width="110" height="72.5" as="geometry" />
        </mxCell>
        <mxCell id="Oa1IUwboigsTqwIdssuT-9" value="telefon" style="ellipse;whiteSpace=wrap;html=1;fillColor=#dae8fc;strokeColor=#6c8ebf;" vertex="1" parent="1">
          <mxGeometry x="-470" y="190" width="110" height="70" as="geometry" />
        </mxCell>
        <mxCell id="Oa1IUwboigsTqwIdssuT-10" value="handy" style="ellipse;whiteSpace=wrap;html=1;fillColor=#dae8fc;strokeColor=#6c8ebf;" vertex="1" parent="1">
          <mxGeometry x="-440" y="120" width="110" height="70" as="geometry" />
        </mxCell>
        <mxCell id="Oa1IUwboigsTqwIdssuT-11" value="web" style="ellipse;whiteSpace=wrap;html=1;fillColor=#dae8fc;strokeColor=#6c8ebf;" vertex="1" parent="1">
          <mxGeometry x="-240" y="380" width="110" height="70" as="geometry" />
        </mxCell>
        <mxCell id="Oa1IUwboigsTqwIdssuT-12" value="fax" style="ellipse;whiteSpace=wrap;html=1;fillColor=#dae8fc;strokeColor=#6c8ebf;" vertex="1" parent="1">
          <mxGeometry x="-360" y="380" width="110" height="70" as="geometry" />
        </mxCell>
        <mxCell id="Oa1IUwboigsTqwIdssuT-13" value="adress" style="ellipse;whiteSpace=wrap;html=1;fillColor=#dae8fc;strokeColor=#6c8ebf;" vertex="1" parent="1">
          <mxGeometry x="-450" y="335" width="110" height="70" as="geometry" />
        </mxCell>
        <mxCell id="Oa1IUwboigsTqwIdssuT-16" value="category_name" style="ellipse;whiteSpace=wrap;html=1;fillColor=#dae8fc;strokeColor=#6c8ebf;" vertex="1" parent="1">
          <mxGeometry x="580" y="230" width="110" height="67.5" as="geometry" />
        </mxCell>
        <mxCell id="Oa1IUwboigsTqwIdssuT-17" value="settingPage" style="rounded=0;whiteSpace=wrap;html=1;fillColor=#ffe6cc;strokeColor=#d79b00;" vertex="1" parent="1">
          <mxGeometry x="415" y="117.5" width="120" height="60" as="geometry" />
        </mxCell>
        <mxCell id="Oa1IUwboigsTqwIdssuT-18" value="loginPage" style="rounded=0;whiteSpace=wrap;html=1;fillColor=#ffe6cc;strokeColor=#d79b00;" vertex="1" parent="1">
          <mxGeometry x="20" y="-15" width="120" height="60" as="geometry" />
        </mxCell>
        <mxCell id="Oa1IUwboigsTqwIdssuT-20" value="settingPage_id" style="ellipse;whiteSpace=wrap;html=1;fillColor=#dae8fc;strokeColor=#6c8ebf;" vertex="1" parent="1">
          <mxGeometry x="315" y="-15" width="110" height="72.5" as="geometry" />
        </mxCell>
        <mxCell id="Oa1IUwboigsTqwIdssuT-21" value="firma_logo" style="ellipse;whiteSpace=wrap;html=1;fillColor=#dae8fc;strokeColor=#6c8ebf;" vertex="1" parent="1">
          <mxGeometry x="480" y="255" width="100" height="70" as="geometry" />
        </mxCell>
        <mxCell id="Oa1IUwboigsTqwIdssuT-26" value="company_owner" style="ellipse;whiteSpace=wrap;html=1;fillColor=#dae8fc;strokeColor=#6c8ebf;" vertex="1" parent="1">
          <mxGeometry x="532.5" y="-40" width="115" height="70" as="geometry" />
        </mxCell>
        <mxCell id="Oa1IUwboigsTqwIdssuT-29" value="konto" style="ellipse;whiteSpace=wrap;html=1;fillColor=#dae8fc;strokeColor=#6c8ebf;" vertex="1" parent="1">
          <mxGeometry x="640" y="77.5" width="110" height="75" as="geometry" />
        </mxCell>
        <mxCell id="Oa1IUwboigsTqwIdssuT-32" value="variant_name" style="ellipse;whiteSpace=wrap;html=1;fillColor=#dae8fc;strokeColor=#6c8ebf;" vertex="1" parent="1">
          <mxGeometry x="420" y="-50" width="110" height="75" as="geometry" />
        </mxCell>
        <mxCell id="Oa1IUwboigsTqwIdssuT-49" value="" style="endArrow=none;html=1;rounded=0;exitX=0.5;exitY=0;exitDx=0;exitDy=0;fillColor=#dae8fc;strokeColor=#000000;" edge="1" parent="1" source="Oa1IUwboigsTqwIdssuT-1" target="Oa1IUwboigsTqwIdssuT-2">
          <mxGeometry width="50" height="50" relative="1" as="geometry">
            <mxPoint x="-170" y="120" as="sourcePoint" />
            <mxPoint x="-120" y="70" as="targetPoint" />
          </mxGeometry>
        </mxCell>
        <mxCell id="Oa1IUwboigsTqwIdssuT-51" value="" style="endArrow=none;html=1;rounded=0;exitX=0.5;exitY=0;exitDx=0;exitDy=0;entryX=1;entryY=1;entryDx=0;entryDy=0;fillColor=#dae8fc;strokeColor=#000000;" edge="1" parent="1" source="Oa1IUwboigsTqwIdssuT-1" target="Oa1IUwboigsTqwIdssuT-3">
          <mxGeometry width="50" height="50" relative="1" as="geometry">
            <mxPoint x="-250" y="150" as="sourcePoint" />
            <mxPoint x="-200" y="100" as="targetPoint" />
          </mxGeometry>
        </mxCell>
        <mxCell id="Oa1IUwboigsTqwIdssuT-52" value="" style="endArrow=none;html=1;rounded=0;entryX=1;entryY=1;entryDx=0;entryDy=0;exitX=0.5;exitY=0;exitDx=0;exitDy=0;fillColor=#dae8fc;strokeColor=#000000;" edge="1" parent="1" source="Oa1IUwboigsTqwIdssuT-1" target="Oa1IUwboigsTqwIdssuT-4">
          <mxGeometry width="50" height="50" relative="1" as="geometry">
            <mxPoint y="310" as="sourcePoint" />
            <mxPoint x="50" y="260" as="targetPoint" />
          </mxGeometry>
        </mxCell>
        <mxCell id="Oa1IUwboigsTqwIdssuT-53" value="" style="endArrow=none;html=1;rounded=0;entryX=1;entryY=0.5;entryDx=0;entryDy=0;exitX=0;exitY=0;exitDx=0;exitDy=0;fillColor=#dae8fc;strokeColor=#000000;" edge="1" parent="1" source="Oa1IUwboigsTqwIdssuT-1" target="Oa1IUwboigsTqwIdssuT-10">
          <mxGeometry width="50" height="50" relative="1" as="geometry">
            <mxPoint y="310" as="sourcePoint" />
            <mxPoint x="50" y="260" as="targetPoint" />
          </mxGeometry>
        </mxCell>
        <mxCell id="Oa1IUwboigsTqwIdssuT-54" value="" style="endArrow=none;html=1;rounded=0;exitX=0.955;exitY=0.374;exitDx=0;exitDy=0;exitPerimeter=0;entryX=0;entryY=0.25;entryDx=0;entryDy=0;fillColor=#dae8fc;strokeColor=#000000;" edge="1" parent="1" source="Oa1IUwboigsTqwIdssuT-9" target="Oa1IUwboigsTqwIdssuT-1">
          <mxGeometry width="50" height="50" relative="1" as="geometry">
            <mxPoint x="-220" y="310" as="sourcePoint" />
            <mxPoint x="-170" y="260" as="targetPoint" />
          </mxGeometry>
        </mxCell>
        <mxCell id="Oa1IUwboigsTqwIdssuT-55" value="" style="endArrow=none;html=1;rounded=0;entryX=0;entryY=0.75;entryDx=0;entryDy=0;fillColor=#dae8fc;strokeColor=#000000;" edge="1" parent="1" source="Oa1IUwboigsTqwIdssuT-5" target="Oa1IUwboigsTqwIdssuT-1">
          <mxGeometry width="50" height="50" relative="1" as="geometry">
            <mxPoint x="-300" y="340" as="sourcePoint" />
            <mxPoint x="-250" y="290" as="targetPoint" />
            <Array as="points" />
          </mxGeometry>
        </mxCell>
        <mxCell id="Oa1IUwboigsTqwIdssuT-56" value="" style="endArrow=none;html=1;rounded=0;entryX=0;entryY=1;entryDx=0;entryDy=0;fillColor=#dae8fc;strokeColor=#000000;" edge="1" parent="1" source="Oa1IUwboigsTqwIdssuT-13" target="Oa1IUwboigsTqwIdssuT-1">
          <mxGeometry width="50" height="50" relative="1" as="geometry">
            <mxPoint y="310" as="sourcePoint" />
            <mxPoint x="50" y="260" as="targetPoint" />
          </mxGeometry>
        </mxCell>
        <mxCell id="Oa1IUwboigsTqwIdssuT-59" value="" style="endArrow=none;html=1;rounded=0;entryX=0.25;entryY=1;entryDx=0;entryDy=0;exitX=0.5;exitY=0;exitDx=0;exitDy=0;fillColor=#dae8fc;strokeColor=#000000;" edge="1" parent="1" source="Oa1IUwboigsTqwIdssuT-12" target="Oa1IUwboigsTqwIdssuT-1">
          <mxGeometry width="50" height="50" relative="1" as="geometry">
            <mxPoint x="-110" y="400" as="sourcePoint" />
            <mxPoint x="50" y="260" as="targetPoint" />
          </mxGeometry>
        </mxCell>
        <mxCell id="Oa1IUwboigsTqwIdssuT-61" value="" style="endArrow=none;html=1;rounded=0;exitX=0.5;exitY=0;exitDx=0;exitDy=0;entryX=0.5;entryY=1;entryDx=0;entryDy=0;fillColor=#dae8fc;strokeColor=#000000;" edge="1" parent="1" source="Oa1IUwboigsTqwIdssuT-11" target="Oa1IUwboigsTqwIdssuT-1">
          <mxGeometry width="50" height="50" relative="1" as="geometry">
            <mxPoint x="-160" y="340" as="sourcePoint" />
            <mxPoint x="-110" y="290" as="targetPoint" />
          </mxGeometry>
        </mxCell>
        <mxCell id="Oa1IUwboigsTqwIdssuT-63" value="login" style="rhombus;whiteSpace=wrap;html=1;fillColor=#dae8fc;strokeColor=#6c8ebf;" vertex="1" parent="1">
          <mxGeometry x="-100" y="90" width="70" height="70" as="geometry" />
        </mxCell>
        <mxCell id="Oa1IUwboigsTqwIdssuT-64" value="loginPage_id" style="ellipse;whiteSpace=wrap;html=1;fillColor=#dae8fc;strokeColor=#6c8ebf;" vertex="1" parent="1">
          <mxGeometry x="180" y="-170" width="110" height="70" as="geometry" />
        </mxCell>
        <mxCell id="Oa1IUwboigsTqwIdssuT-65" value="email" style="ellipse;whiteSpace=wrap;html=1;fillColor=#dae8fc;strokeColor=#6c8ebf;" vertex="1" parent="1">
          <mxGeometry x="70" y="-190" width="110" height="70" as="geometry" />
        </mxCell>
        <mxCell id="Oa1IUwboigsTqwIdssuT-66" value="password" style="ellipse;whiteSpace=wrap;html=1;fillColor=#dae8fc;strokeColor=#6c8ebf;" vertex="1" parent="1">
          <mxGeometry x="-40" y="-200" width="110" height="70" as="geometry" />
        </mxCell>
        <mxCell id="Oa1IUwboigsTqwIdssuT-67" value="loginButton" style="ellipse;whiteSpace=wrap;html=1;fillColor=#dae8fc;strokeColor=#6c8ebf;" vertex="1" parent="1">
          <mxGeometry x="-120" y="-150" width="110" height="70" as="geometry" />
        </mxCell>
        <mxCell id="Oa1IUwboigsTqwIdssuT-68" value="" style="endArrow=none;html=1;rounded=0;exitX=1;exitY=0;exitDx=0;exitDy=0;entryX=0.5;entryY=1;entryDx=0;entryDy=0;fillColor=#dae8fc;strokeColor=#000000;" edge="1" parent="1" source="Oa1IUwboigsTqwIdssuT-18" target="Oa1IUwboigsTqwIdssuT-64">
          <mxGeometry width="50" height="50" relative="1" as="geometry">
            <mxPoint x="90" y="130" as="sourcePoint" />
            <mxPoint x="140" y="80" as="targetPoint" />
          </mxGeometry>
        </mxCell>
        <mxCell id="Oa1IUwboigsTqwIdssuT-69" value="" style="endArrow=none;html=1;rounded=0;exitX=0.5;exitY=0;exitDx=0;exitDy=0;entryX=0.5;entryY=1;entryDx=0;entryDy=0;fillColor=#dae8fc;strokeColor=#000000;" edge="1" parent="1" source="Oa1IUwboigsTqwIdssuT-18" target="Oa1IUwboigsTqwIdssuT-65">
          <mxGeometry width="50" height="50" relative="1" as="geometry">
            <mxPoint x="-10" y="120" as="sourcePoint" />
            <mxPoint x="50" y="90" as="targetPoint" />
          </mxGeometry>
        </mxCell>
        <mxCell id="Oa1IUwboigsTqwIdssuT-70" value="" style="endArrow=none;html=1;rounded=0;exitX=1;exitY=1;exitDx=0;exitDy=0;entryX=0;entryY=0;entryDx=0;entryDy=0;fillColor=#dae8fc;strokeColor=#000000;" edge="1" parent="1" source="Oa1IUwboigsTqwIdssuT-67" target="Oa1IUwboigsTqwIdssuT-18">
          <mxGeometry width="50" height="50" relative="1" as="geometry">
            <mxPoint x="20" y="240" as="sourcePoint" />
            <mxPoint x="30" y="-20" as="targetPoint" />
          </mxGeometry>
        </mxCell>
        <mxCell id="Oa1IUwboigsTqwIdssuT-78" value="" style="endArrow=none;html=1;rounded=0;entryX=0.5;entryY=0;entryDx=0;entryDy=0;exitX=0.5;exitY=1;exitDx=0;exitDy=0;fillColor=#dae8fc;strokeColor=#000000;" edge="1" parent="1" source="Oa1IUwboigsTqwIdssuT-66" target="Oa1IUwboigsTqwIdssuT-18">
          <mxGeometry width="50" height="50" relative="1" as="geometry">
            <mxPoint x="-20" y="170" as="sourcePoint" />
            <mxPoint x="30" y="120" as="targetPoint" />
          </mxGeometry>
        </mxCell>
        <mxCell id="Oa1IUwboigsTqwIdssuT-81" value="registerPage" style="rounded=0;whiteSpace=wrap;html=1;fillColor=#ffe6cc;strokeColor=#d79b00;" vertex="1" parent="1">
          <mxGeometry x="80" y="355" width="120" height="60" as="geometry" />
        </mxCell>
        <mxCell id="Oa1IUwboigsTqwIdssuT-82" value="registieren" style="rhombus;whiteSpace=wrap;html=1;fillColor=#dae8fc;strokeColor=#6c8ebf;" vertex="1" parent="1">
          <mxGeometry x="-70" y="280" width="70" height="70" as="geometry" />
        </mxCell>
        <mxCell id="Oa1IUwboigsTqwIdssuT-83" value="registerfreeButton" style="ellipse;whiteSpace=wrap;html=1;fillColor=#dae8fc;strokeColor=#6c8ebf;" vertex="1" parent="1">
          <mxGeometry x="-70" y="420" width="110" height="70" as="geometry" />
        </mxCell>
        <mxCell id="Oa1IUwboigsTqwIdssuT-84" value="registerPage_id" style="ellipse;whiteSpace=wrap;html=1;fillColor=#dae8fc;strokeColor=#6c8ebf;" vertex="1" parent="1">
          <mxGeometry x="330" y="380" width="110" height="70" as="geometry" />
        </mxCell>
        <mxCell id="Oa1IUwboigsTqwIdssuT-85" value="firstName" style="ellipse;whiteSpace=wrap;html=1;fillColor=#dae8fc;strokeColor=#6c8ebf;" vertex="1" parent="1">
          <mxGeometry x="245" y="450" width="110" height="70" as="geometry" />
        </mxCell>
        <mxCell id="Oa1IUwboigsTqwIdssuT-86" value="lastName" style="ellipse;whiteSpace=wrap;html=1;fillColor=#dae8fc;strokeColor=#6c8ebf;" vertex="1" parent="1">
          <mxGeometry x="135" y="490" width="110" height="70" as="geometry" />
        </mxCell>
        <mxCell id="Oa1IUwboigsTqwIdssuT-87" value="email" style="ellipse;whiteSpace=wrap;html=1;fillColor=#dae8fc;strokeColor=#6c8ebf;" vertex="1" parent="1">
          <mxGeometry x="25" y="475" width="110" height="60" as="geometry" />
        </mxCell>
        <mxCell id="Oa1IUwboigsTqwIdssuT-93" value="" style="endArrow=none;html=1;rounded=0;entryX=0;entryY=0.5;entryDx=0;entryDy=0;exitX=1;exitY=0.5;exitDx=0;exitDy=0;fillColor=#dae8fc;strokeColor=#000000;" edge="1" parent="1" source="Oa1IUwboigsTqwIdssuT-81" target="Oa1IUwboigsTqwIdssuT-84">
          <mxGeometry width="50" height="50" relative="1" as="geometry">
            <mxPoint x="200" y="365" as="sourcePoint" />
            <mxPoint x="250" y="315" as="targetPoint" />
          </mxGeometry>
        </mxCell>
        <mxCell id="Oa1IUwboigsTqwIdssuT-94" value="" style="endArrow=none;html=1;rounded=0;entryX=1;entryY=1;entryDx=0;entryDy=0;exitX=0;exitY=0;exitDx=0;exitDy=0;fillColor=#dae8fc;strokeColor=#000000;" edge="1" parent="1" source="Oa1IUwboigsTqwIdssuT-85" target="Oa1IUwboigsTqwIdssuT-81">
          <mxGeometry width="50" height="50" relative="1" as="geometry">
            <mxPoint x="-20" y="200" as="sourcePoint" />
            <mxPoint x="30" y="150" as="targetPoint" />
            <Array as="points" />
          </mxGeometry>
        </mxCell>
        <mxCell id="Oa1IUwboigsTqwIdssuT-95" value="" style="endArrow=none;html=1;rounded=0;entryX=0.75;entryY=1;entryDx=0;entryDy=0;exitX=0.5;exitY=0;exitDx=0;exitDy=0;fillColor=#dae8fc;strokeColor=#000000;" edge="1" parent="1" source="Oa1IUwboigsTqwIdssuT-86" target="Oa1IUwboigsTqwIdssuT-81">
          <mxGeometry width="50" height="50" relative="1" as="geometry">
            <mxPoint x="-20" y="200" as="sourcePoint" />
            <mxPoint x="30" y="150" as="targetPoint" />
          </mxGeometry>
        </mxCell>
        <mxCell id="Oa1IUwboigsTqwIdssuT-96" value="" style="endArrow=none;html=1;rounded=0;entryX=0.5;entryY=1;entryDx=0;entryDy=0;exitX=0.5;exitY=0;exitDx=0;exitDy=0;fillColor=#dae8fc;strokeColor=#000000;" edge="1" parent="1" source="Oa1IUwboigsTqwIdssuT-87" target="Oa1IUwboigsTqwIdssuT-81">
          <mxGeometry width="50" height="50" relative="1" as="geometry">
            <mxPoint x="-20" y="200" as="sourcePoint" />
            <mxPoint x="30" y="150" as="targetPoint" />
          </mxGeometry>
        </mxCell>
        <mxCell id="Oa1IUwboigsTqwIdssuT-98" value="" style="endArrow=none;html=1;rounded=0;entryX=0;entryY=0.75;entryDx=0;entryDy=0;exitX=1;exitY=0;exitDx=0;exitDy=0;fillColor=#dae8fc;strokeColor=#000000;" edge="1" parent="1" source="Oa1IUwboigsTqwIdssuT-83" target="Oa1IUwboigsTqwIdssuT-81">
          <mxGeometry width="50" height="50" relative="1" as="geometry">
            <mxPoint x="-20" y="200" as="sourcePoint" />
            <mxPoint x="30" y="150" as="targetPoint" />
          </mxGeometry>
        </mxCell>
        <mxCell id="Oa1IUwboigsTqwIdssuT-100" value="&#xa;company_name&#xa;&#xa;" style="ellipse;whiteSpace=wrap;html=1;fillColor=#dae8fc;strokeColor=#6c8ebf;" vertex="1" parent="1">
          <mxGeometry x="630" width="110" height="70" as="geometry" />
        </mxCell>
        <mxCell id="Oa1IUwboigsTqwIdssuT-103" value="" style="endArrow=none;html=1;rounded=0;entryX=0;entryY=0;entryDx=0;entryDy=0;exitX=0.5;exitY=1;exitDx=0;exitDy=0;fillColor=#dae8fc;strokeColor=#000000;" edge="1" parent="1" source="Oa1IUwboigsTqwIdssuT-20" target="Oa1IUwboigsTqwIdssuT-17">
          <mxGeometry width="50" height="50" relative="1" as="geometry">
            <mxPoint x="370" y="80" as="sourcePoint" />
            <mxPoint x="30" y="150" as="targetPoint" />
            <Array as="points">
              <mxPoint x="400" y="100" />
            </Array>
          </mxGeometry>
        </mxCell>
        <mxCell id="Oa1IUwboigsTqwIdssuT-104" value="" style="endArrow=none;html=1;rounded=0;entryX=0.5;entryY=1;entryDx=0;entryDy=0;fillColor=#dae8fc;strokeColor=#000000;" edge="1" parent="1" source="Oa1IUwboigsTqwIdssuT-17" target="Oa1IUwboigsTqwIdssuT-32">
          <mxGeometry width="50" height="50" relative="1" as="geometry">
            <mxPoint x="-20" y="200" as="sourcePoint" />
            <mxPoint x="30" y="150" as="targetPoint" />
          </mxGeometry>
        </mxCell>
        <mxCell id="Oa1IUwboigsTqwIdssuT-105" value="" style="endArrow=none;html=1;rounded=0;entryX=0.314;entryY=0.933;entryDx=0;entryDy=0;entryPerimeter=0;exitX=0.75;exitY=0;exitDx=0;exitDy=0;fillColor=#dae8fc;strokeColor=#000000;" edge="1" parent="1" source="Oa1IUwboigsTqwIdssuT-17" target="Oa1IUwboigsTqwIdssuT-26">
          <mxGeometry width="50" height="50" relative="1" as="geometry">
            <mxPoint x="530" y="130" as="sourcePoint" />
            <mxPoint x="580" y="80" as="targetPoint" />
          </mxGeometry>
        </mxCell>
        <mxCell id="Oa1IUwboigsTqwIdssuT-106" value="" style="endArrow=none;html=1;rounded=0;entryX=1;entryY=0.25;entryDx=0;entryDy=0;exitX=0;exitY=0.5;exitDx=0;exitDy=0;fillColor=#dae8fc;strokeColor=#000000;" edge="1" parent="1" source="Oa1IUwboigsTqwIdssuT-100" target="Oa1IUwboigsTqwIdssuT-17">
          <mxGeometry width="50" height="50" relative="1" as="geometry">
            <mxPoint x="-20" y="200" as="sourcePoint" />
            <mxPoint x="30" y="150" as="targetPoint" />
          </mxGeometry>
        </mxCell>
        <mxCell id="Oa1IUwboigsTqwIdssuT-107" value="" style="endArrow=none;html=1;rounded=0;entryX=0;entryY=0.5;entryDx=0;entryDy=0;exitX=1;exitY=0.5;exitDx=0;exitDy=0;fillColor=#dae8fc;strokeColor=#000000;" edge="1" parent="1" source="Oa1IUwboigsTqwIdssuT-17" target="Oa1IUwboigsTqwIdssuT-29">
          <mxGeometry width="50" height="50" relative="1" as="geometry">
            <mxPoint x="-20" y="200" as="sourcePoint" />
            <mxPoint x="30" y="150" as="targetPoint" />
          </mxGeometry>
        </mxCell>
        <mxCell id="Oa1IUwboigsTqwIdssuT-108" value="" style="endArrow=none;html=1;rounded=0;entryX=0;entryY=0.5;entryDx=0;entryDy=0;exitX=1;exitY=0.75;exitDx=0;exitDy=0;fillColor=#dae8fc;strokeColor=#000000;" edge="1" parent="1" source="Oa1IUwboigsTqwIdssuT-17" target="Oa1IUwboigsTqwIdssuT-8">
          <mxGeometry width="50" height="50" relative="1" as="geometry">
            <mxPoint x="-20" y="200" as="sourcePoint" />
            <mxPoint x="30" y="150" as="targetPoint" />
          </mxGeometry>
        </mxCell>
        <mxCell id="Oa1IUwboigsTqwIdssuT-109" value="" style="endArrow=none;html=1;rounded=0;entryX=0;entryY=0;entryDx=0;entryDy=0;exitX=0.75;exitY=1;exitDx=0;exitDy=0;fillColor=#dae8fc;strokeColor=#000000;" edge="1" parent="1" source="Oa1IUwboigsTqwIdssuT-17" target="Oa1IUwboigsTqwIdssuT-16">
          <mxGeometry width="50" height="50" relative="1" as="geometry">
            <mxPoint x="-20" y="200" as="sourcePoint" />
            <mxPoint x="30" y="150" as="targetPoint" />
          </mxGeometry>
        </mxCell>
        <mxCell id="Oa1IUwboigsTqwIdssuT-110" value="" style="endArrow=none;html=1;rounded=0;exitX=0.5;exitY=0;exitDx=0;exitDy=0;entryX=0.5;entryY=1;entryDx=0;entryDy=0;fillColor=#dae8fc;strokeColor=#000000;" edge="1" parent="1" source="Oa1IUwboigsTqwIdssuT-21" target="Oa1IUwboigsTqwIdssuT-17">
          <mxGeometry width="50" height="50" relative="1" as="geometry">
            <mxPoint x="415" y="225" as="sourcePoint" />
            <mxPoint x="465" y="175" as="targetPoint" />
          </mxGeometry>
        </mxCell>
        <mxCell id="Oa1IUwboigsTqwIdssuT-111" value="" style="endArrow=none;html=1;rounded=0;exitX=1;exitY=0;exitDx=0;exitDy=0;fillColor=#dae8fc;strokeColor=#000000;" edge="1" parent="1" source="Oa1IUwboigsTqwIdssuT-1" target="Oa1IUwboigsTqwIdssuT-63">
          <mxGeometry width="50" height="50" relative="1" as="geometry">
            <mxPoint x="-150" y="130" as="sourcePoint" />
            <mxPoint x="-100" y="80" as="targetPoint" />
          </mxGeometry>
        </mxCell>
        <mxCell id="Oa1IUwboigsTqwIdssuT-112" value="" style="endArrow=none;html=1;rounded=0;entryX=0;entryY=1;entryDx=0;entryDy=0;exitX=1;exitY=0;exitDx=0;exitDy=0;fillColor=#dae8fc;strokeColor=#000000;" edge="1" parent="1" source="Oa1IUwboigsTqwIdssuT-63" target="Oa1IUwboigsTqwIdssuT-18">
          <mxGeometry width="50" height="50" relative="1" as="geometry">
            <mxPoint x="-20" y="200" as="sourcePoint" />
            <mxPoint x="30" y="150" as="targetPoint" />
          </mxGeometry>
        </mxCell>
        <mxCell id="Oa1IUwboigsTqwIdssuT-113" value="&lt;font style=&quot;font-size: 18px;&quot;&gt;1&lt;/font&gt;" style="text;html=1;align=center;verticalAlign=middle;whiteSpace=wrap;rounded=0;fillColor=#f9f7ed;strokeColor=#36393d;" vertex="1" parent="1">
          <mxGeometry x="-160" y="140" width="60" height="30" as="geometry" />
        </mxCell>
        <mxCell id="Oa1IUwboigsTqwIdssuT-123" value="&lt;font style=&quot;font-size: 18px;&quot;&gt;n&lt;/font&gt;" style="text;html=1;align=center;verticalAlign=middle;whiteSpace=wrap;rounded=0;fillColor=#f9f7ed;strokeColor=#36393d;" vertex="1" parent="1">
          <mxGeometry x="-60" y="40" width="60" height="30" as="geometry" />
        </mxCell>
        <mxCell id="Oa1IUwboigsTqwIdssuT-124" value="" style="endArrow=none;html=1;rounded=0;exitX=1;exitY=1;exitDx=0;exitDy=0;entryX=0;entryY=0;entryDx=0;entryDy=0;fillColor=#dae8fc;strokeColor=#000000;" edge="1" parent="1" source="Oa1IUwboigsTqwIdssuT-1" target="Oa1IUwboigsTqwIdssuT-82">
          <mxGeometry width="50" height="50" relative="1" as="geometry">
            <mxPoint x="-20" y="200" as="sourcePoint" />
            <mxPoint x="-47" y="265" as="targetPoint" />
          </mxGeometry>
        </mxCell>
        <mxCell id="Oa1IUwboigsTqwIdssuT-126" value="" style="endArrow=none;html=1;rounded=0;entryX=0;entryY=0;entryDx=0;entryDy=0;exitX=1;exitY=0.5;exitDx=0;exitDy=0;fillColor=#dae8fc;strokeColor=#000000;" edge="1" parent="1" source="Oa1IUwboigsTqwIdssuT-82" target="Oa1IUwboigsTqwIdssuT-81">
          <mxGeometry width="50" height="50" relative="1" as="geometry">
            <mxPoint x="-10" y="320" as="sourcePoint" />
            <mxPoint x="50" y="270" as="targetPoint" />
          </mxGeometry>
        </mxCell>
        <mxCell id="Oa1IUwboigsTqwIdssuT-127" value="&lt;font style=&quot;font-size: 18px;&quot;&gt;1&lt;/font&gt;" style="text;html=1;align=center;verticalAlign=middle;whiteSpace=wrap;rounded=0;fillColor=#f9f7ed;strokeColor=#36393d;" vertex="1" parent="1">
          <mxGeometry x="-140" y="240" width="60" height="30" as="geometry" />
        </mxCell>
        <mxCell id="Oa1IUwboigsTqwIdssuT-128" value="&lt;font style=&quot;font-size: 18px;&quot;&gt;1&lt;/font&gt;" style="text;html=1;align=center;verticalAlign=middle;whiteSpace=wrap;rounded=0;fillColor=#f9f7ed;strokeColor=#36393d;" vertex="1" parent="1">
          <mxGeometry x="40" y="305" width="60" height="30" as="geometry" />
        </mxCell>
        <mxCell id="Oa1IUwboigsTqwIdssuT-130" value="besitzt" style="rhombus;whiteSpace=wrap;html=1;fillColor=#dae8fc;strokeColor=#6c8ebf;" vertex="1" parent="1">
          <mxGeometry x="130" y="148.75" width="80" height="80" as="geometry" />
        </mxCell>
        <mxCell id="Oa1IUwboigsTqwIdssuT-131" value="" style="endArrow=none;html=1;rounded=0;entryX=0;entryY=0.5;entryDx=0;entryDy=0;fillColor=#dae8fc;strokeColor=#000000;" edge="1" parent="1" target="Oa1IUwboigsTqwIdssuT-130">
          <mxGeometry width="50" height="50" relative="1" as="geometry">
            <mxPoint x="-150" y="223" as="sourcePoint" />
            <mxPoint x="-90" y="210" as="targetPoint" />
          </mxGeometry>
        </mxCell>
        <mxCell id="Oa1IUwboigsTqwIdssuT-132" value="" style="endArrow=none;html=1;rounded=0;entryX=0;entryY=0.5;entryDx=0;entryDy=0;fillColor=#dae8fc;strokeColor=#000000;" edge="1" parent="1" target="Oa1IUwboigsTqwIdssuT-17">
          <mxGeometry width="50" height="50" relative="1" as="geometry">
            <mxPoint x="200" y="180" as="sourcePoint" />
            <mxPoint x="30" y="150" as="targetPoint" />
          </mxGeometry>
        </mxCell>
        <mxCell id="Oa1IUwboigsTqwIdssuT-133" value="&lt;font style=&quot;font-size: 18px;&quot;&gt;1&lt;/font&gt;" style="text;html=1;align=center;verticalAlign=middle;whiteSpace=wrap;rounded=0;fillColor=#f9f7ed;strokeColor=#36393d;" vertex="1" parent="1">
          <mxGeometry y="160" width="60" height="30" as="geometry" />
        </mxCell>
        <mxCell id="Oa1IUwboigsTqwIdssuT-136" value="&lt;font style=&quot;font-size: 18px;&quot;&gt;1&lt;/font&gt;" style="text;html=1;align=center;verticalAlign=middle;whiteSpace=wrap;rounded=0;fillColor=#f9f7ed;strokeColor=#36393d;" vertex="1" parent="1">
          <mxGeometry x="260" y="120" width="60" height="30" as="geometry" />
        </mxCell>
      </root>
    </mxGraphModel>
  </diagram>
</mxfile>
